<?xml version="1.0" encoding="UTF-8" standalone="no"?>
<!-- Created with Inkscape (http://www.inkscape.org/) -->

<svg
   xmlns:dc="http://purl.org/dc/elements/1.1/"
   xmlns:cc="http://creativecommons.org/ns#"
   xmlns:rdf="http://www.w3.org/1999/02/22-rdf-syntax-ns#"
   xmlns:svg="http://www.w3.org/2000/svg"
   xmlns="http://www.w3.org/2000/svg"
   xmlns:sodipodi="http://sodipodi.sourceforge.net/DTD/sodipodi-0.dtd"
   xmlns:inkscape="http://www.inkscape.org/namespaces/inkscape"
   width="256mm"
   height="256mm"
   viewBox="0 0 256 256"
   version="1.1"
   id="svg8"
   inkscape:version="0.92.3 (2405546, 2018-03-11)"
   sodipodi:docname="logo_192192.svg">
  <defs
     id="defs2" />
  <sodipodi:namedview
     id="base"
     pagecolor="#ffffff"
     bordercolor="#666666"
     borderopacity="1.0"
     inkscape:pageopacity="0.0"
     inkscape:pageshadow="2"
     inkscape:zoom="0.54226481"
     inkscape:cx="306.79165"
     inkscape:cy="259.35375"
     inkscape:document-units="mm"
     inkscape:current-layer="layer2"
     showgrid="false"
     inkscape:window-width="1920"
     inkscape:window-height="1026"
     inkscape:window-x="0"
     inkscape:window-y="25"
     inkscape:window-maximized="1"
     inkscape:snap-bbox="false"
     inkscape:snap-global="true"
     units="mm"
     width="45mm" />
  <metadata
     id="metadata5">
    <rdf:RDF>
      <cc:Work
         rdf:about="">
        <dc:format>image/svg+xml</dc:format>
        <dc:type
           rdf:resource="http://purl.org/dc/dcmitype/StillImage" />
        <dc:title></dc:title>
      </cc:Work>
    </rdf:RDF>
  </metadata>
  <g
     inkscape:label="Calque 1"
     inkscape:groupmode="layer"
     id="layer1"
     transform="translate(0,-41)">
    <path
       sodipodi:type="star"
       style="fill:#000000;stroke-width:0.26458332"
       id="path166"
       sodipodi:sides="27"
       sodipodi:cx="197.41032"
       sodipodi:cy="244.40482"
       sodipodi:r1="100.02203"
       sodipodi:r2="50.011013"
       sodipodi:arg1="1.0629192"
       sodipodi:arg2="1.1792745"
       inkscape:flatsided="false"
       inkscape:rounded="0"
       inkscape:randomized="0"
       d="m 246.05338,331.80196 -29.55908,-41.17049 8.09273,50.03255 -19.26774,-46.87753 -3.66371,50.55023 -7.93767,-50.05739 -15.22264,48.34273 3.82031,-50.53863 -25.96091,43.52906 15.37235,-48.29533 -35.29963,36.36873 26.09566,-43.44842 -42.73533,27.24776 35.41214,-36.25919 -47.86716,16.65785 42.81955,-27.11522 -50.418456,5.1699 47.918536,-16.50946 -50.251679,-6.59674 50.434229,-5.01367 -47.37582,-18.00776 50.231,6.75241 -41.94593,-28.44798 47.3198,18.15446 -34.25471,-37.35456 41.85758,28.57781 -24.71682,-44.24734 34.13882,37.46051 -13.84644,-48.75474 24.57961,44.32371 -2.22959,-50.63376 13.69532,48.79741 9.50746,-49.7831 2.07269,50.64043 20.73196,-46.24862 -9.66166,49.7534 30.83879,-40.22086 -20.87515,46.18416 39.28309,-32.02479 -30.96326,40.12512 45.60964,-22.10225 -39.38213,31.90292 49.47735,-10.98817 -45.67789,21.96083 50.67773,0.71828 -49.51116,10.83482 49.14606,12.386 -50.67527,-0.87529 44.96492,23.386 -49.10745,-12.53821 38.35969,33.12525 -44.89224,-23.52521 29.6865,41.07871 -38.25688,-33.24394 z"
       inkscape:transform-center-x="0.29441836"
       inkscape:transform-center-y="0.11360551"
       transform="matrix(1.1929652,0,0,1.2411371,-107.90021,-131.2742)" />
  </g>
  <g
     inkscape:groupmode="layer"
     id="layer3"
     inkscape:label="Calque 3"
     transform="translate(0,-41)" />
  <g
     inkscape:groupmode="layer"
     id="layer2"
     inkscape:label="Calque 2"
     transform="translate(0,-41)">
    <path
       sodipodi:type="star"
       style="fill:#536c5d;stroke-width:0.26458332"
       id="path107"
       sodipodi:sides="9"
       sodipodi:cx="198.17783"
       sodipodi:cy="242.87335"
       sodipodi:r1="104.111"
       sodipodi:r2="52.055496"
       sodipodi:arg1="0.31371399"
       sodipodi:arg2="0.66277984"
       inkscape:flatsided="false"
       inkscape:rounded="0"
       inkscape:randomized="0"
       d="m 297.20759,275.00133 -57.99521,-0.0977 14.17518,56.23626 -44.36412,-37.35342 -25.28916,52.1911 -9.97456,-57.13109 -52.92042,23.72515 29.0822,-50.17648 -55.789624,-15.84207 54.531074,-19.74373 -32.55424,-47.99661 54.46425,19.92731 5.91363,-57.69299 28.91301,50.27416 41.61444,-40.3942 -10.16696,57.09716 57.84341,-4.19449 -44.48969,37.20377 z"
       inkscape:transform-center-x="2.9920157"
       inkscape:transform-center-y="0.79319372"
       transform="matrix(1.1929652,0,0,1.2411371,-107.90021,-131.2742)" />
    <g
       id="g86"
       transform="matrix(0.30363898,0,0,0.35241396,50.231485,86.902249)">
      <g
         id="g24">
        <g
           id="g22">
          <g
             id="g20">
            <path
               id="path10"
               d="m 203.288,228.69 c 0,-13.568 -11.038,-24.606 -24.606,-24.606 -13.567,0 -24.605,11.038 -24.605,24.606 0,4.142 3.357,7.5 7.5,7.5 4.143,0 7.5,-3.358 7.5,-7.5 0,-5.297 4.309,-9.606 9.605,-9.606 5.296,0 9.606,4.309 9.606,9.606 0,4.142 3.357,7.5 7.5,7.5 4.142,0 7.5,-3.357 7.5,-7.5 z"
               inkscape:connector-curvature="0" />
            <path
               id="path12"
               d="m 268.29,290.463 c -3.104,3.561 -7.584,5.603 -12.292,5.603 -4.708,0 -9.188,-2.042 -12.292,-5.603 -2.723,-3.123 -7.461,-3.448 -10.582,-0.726 -3.123,2.722 -3.447,7.459 -0.727,10.582 5.954,6.831 14.556,10.748 23.601,10.748 9.045,0 17.647,-3.917 23.601,-10.748 2.721,-3.123 2.396,-7.86 -0.727,-10.582 -3.122,-2.722 -7.861,-2.397 -10.582,0.726 z"
               inkscape:connector-curvature="0" />
            <path
               id="path14"
               d="m 511.646,143.572 c -2.959,-21.412 -23.705,-36.919 -49.361,-36.919 -0.12,0 -0.245,0 -0.363,0.004 -4.067,0.009 -8.419,0.254 -12.938,0.73 -4.119,0.434 -7.108,4.125 -6.674,8.244 0.433,4.119 4.117,7.103 8.244,6.674 4.086,-0.43 7.989,-0.648 11.601,-0.648 0.076,0 0.152,-10e-4 0.228,-0.003 17.745,0.041 32.52,10.319 34.405,23.971 0.948,6.863 -1.378,13.97 -6.549,20.012 -2.348,2.743 -2.407,6.771 -0.142,9.582 3.197,3.969 6.774,10.378 5.654,18.376 -0.942,6.733 -5.128,12.766 -11.784,16.987 -3.321,2.107 -4.452,6.421 -2.589,9.886 2.99,5.561 3.839,11.399 2.455,16.883 -3.082,12.214 -16.548,20.157 -32.709,19.292 -8.529,-0.45 -16.715,2.804 -22.443,8.931 -0.205,0.22 -0.419,0.428 -0.627,0.643 0.039,-1.348 0.062,-2.7 0.062,-4.058 0,-3.475 -0.14,-6.921 -0.39,-10.34 25.429,-13.676 38.758,-37.763 31.932,-58.856 -7.577,-23.413 -37.274,-34.936 -68.876,-27.401 -5.035,-5.723 -10.503,-11.121 -16.364,-16.149 12.847,-8.329 27.77,-15.25 43.7,-20.217 3.954,-1.233 6.16,-5.438 4.928,-9.393 -1.234,-3.955 -5.439,-6.159 -9.393,-4.928 -19.005,5.926 -36.748,14.469 -51.679,24.832 -29.236,-20.699 -66.038,-33.055 -105.975,-33.055 -39.937,0 -76.738,12.355 -105.973,33.053 -32.697,-22.726 -73.215,-32.991 -99.95,-33.049 -0.12,-0.004 -0.24,-0.004 -0.363,-0.004 -25.654,0 -46.403,15.509 -49.361,36.92 -1.291,9.349 0.989,18.788 6.455,27.096 -4.7,7.757 -6.612,16.455 -5.415,25.006 1.281,9.153 5.953,17.384 13.346,23.699 -2.524,7.124 -2.919,14.503 -1.117,21.648 4.859,19.255 24.63,31.832 48.045,30.601 4.098,-0.217 7.999,1.312 10.694,4.194 4.085,4.371 8.695,8.052 13.727,11.006 7.823,42.831 36.209,78.265 80.531,99.357 3.735,1.78 8.214,0.191 9.995,-3.549 1.779,-3.74 0.19,-8.215 -3.55,-9.995 -47.143,-22.435 -74.18,-62.702 -74.18,-110.476 0,-77.475 70.482,-140.506 157.117,-140.506 86.635,0 157.117,63.031 157.117,140.506 0,6.23 -0.456,12.316 -1.34,18.249 -0.064,0.292 -0.106,0.589 -0.135,0.888 -4.527,28.902 -19.473,54.045 -43.91,73.491 -28.818,22.931 -68.499,35.56 -111.732,35.56 -16.808,0 -33.195,-1.907 -48.708,-5.668 -4.029,-0.978 -8.08,1.496 -9.057,5.521 -0.976,4.026 1.496,8.08 5.521,9.056 16.669,4.042 34.246,6.091 52.243,6.091 46.612,0 89.61,-13.787 121.072,-38.822 26.171,-20.825 42.981,-48.526 48.777,-79.664 5.057,-2.96 9.689,-6.654 13.791,-11.044 2.694,-2.882 6.578,-4.414 10.694,-4.194 23.435,1.241 43.185,-11.346 48.045,-30.602 1.802,-7.145 1.407,-14.523 -1.117,-21.647 7.393,-6.315 12.064,-14.546 13.346,-23.699 1.197,-8.55 -0.715,-17.249 -5.415,-25.005 5.465,-8.309 7.745,-17.749 6.454,-27.098 z M 86.397,235.63 C 70.843,225.369 62.545,210.144 66.611,197.581 c 4.551,-14.063 23.2,-21.473 44.11,-18.724 -11.971,16.981 -20.392,36.191 -24.324,56.773 z m 34.817,-70.067 c -31.6,-7.535 -61.299,3.987 -68.876,27.401 -6.826,21.092 6.503,45.179 31.932,58.856 -0.25,3.419 -0.39,6.865 -0.39,10.34 0,1.363 0.033,2.716 0.071,4.068 -0.212,-0.219 -0.429,-0.43 -0.638,-0.654 -5.727,-6.126 -13.911,-9.381 -22.442,-8.931 -16.163,0.858 -29.627,-7.078 -32.709,-19.291 -1.384,-5.485 -0.535,-11.324 2.455,-16.884 1.863,-3.464 0.732,-7.779 -2.589,-9.886 -6.656,-4.221 -10.842,-10.254 -11.784,-16.986 -1.12,-7.999 2.457,-14.408 5.654,-18.377 2.266,-2.812 2.206,-6.839 -0.142,-9.582 -5.171,-6.042 -7.497,-13.149 -6.549,-20.011 1.886,-13.653 16.659,-23.932 34.404,-23.972 0.076,0.003 0.152,0.003 0.229,0.003 22.572,0 58.387,8.737 87.735,27.759 -5.86,5.027 -11.326,10.425 -16.361,16.147 z m 304.385,70.067 c -3.932,-20.582 -12.353,-39.792 -24.323,-56.773 20.912,-2.749 39.558,4.661 44.11,18.724 4.065,12.563 -4.233,27.789 -19.787,38.049 z"
               inkscape:connector-curvature="0" />
            <path
               id="path16"
               d="m 323.708,228.69 c 0,-5.297 4.309,-9.606 9.606,-9.606 5.297,0 9.605,4.309 9.605,9.606 0,4.142 3.357,7.5 7.5,7.5 4.143,0 7.5,-3.358 7.5,-7.5 0,-13.568 -11.038,-24.606 -24.605,-24.606 -13.568,0 -24.606,11.038 -24.606,24.606 0,4.142 3.357,7.5 7.5,7.5 4.142,0 7.5,-3.357 7.5,-7.5 z"
               inkscape:connector-curvature="0" />
            <path
               id="path18"
               d="m 282.133,214.245 c -6.103,-6.545 -15.14,-10.005 -26.136,-10.005 -10.996,0 -20.033,3.46 -26.136,10.005 -6.053,6.493 -8.729,15.396 -7.952,26.462 1.832,26.105 18.771,41.706 34.088,41.706 8.199,0 16.543,-4.361 22.891,-11.964 6.507,-7.794 10.379,-18.079 11.197,-29.742 0.777,-11.067 -1.899,-19.97 -7.952,-26.462 z m -7.01,25.411 c -1.27,18.11 -11.924,27.755 -19.125,27.755 -7.201,0 -17.854,-9.646 -19.125,-27.755 -0.474,-6.748 0.859,-11.856 3.961,-15.183 4.033,-4.325 10.473,-5.233 15.164,-5.233 4.691,0 11.131,0.908 15.164,5.233 3.101,3.327 4.434,8.435 3.961,15.183 z"
               inkscape:connector-curvature="0" />
          </g>
        </g>
      </g>
      <g
         id="g26" />
      <g
         id="g28" />
      <g
         id="g30" />
      <g
         id="g32" />
      <g
         id="g34" />
      <g
         id="g36" />
      <g
         id="g38" />
      <g
         id="g40" />
      <g
         id="g42" />
      <g
         id="g44" />
      <g
         id="g46" />
      <g
         id="g48" />
      <g
         id="g50" />
      <g
         id="g52" />
      <g
         id="g54" />
    </g>
  </g>
</svg>
